<svg width="39" height="49" viewBox="0 0 40 25" fill="none" xmlns="http://www.w3.org/2000/svg">
<g clip-path="url(#clip0_8_151)">
<path d="M9.53928 12.2253C9.1477 12.4209 8.68719 12.1361 8.68719 11.6984V7.4087C8.68719 7.19973 8.7979 7.00642 8.97814 6.90069L19.0026 1.02029C19.3951 0.789975 19.8895 1.0731 19.8895 1.52829V6.69233C19.8895 6.91552 19.7634 7.11953 19.5637 7.21924L9.53928 12.2253Z" fill="#00A385" fill-opacity="0.75"/>
<path d="M8.97809 12.2362C8.79786 12.1305 8.68713 11.9372 8.68713 11.7282V7.49222C8.68713 7.04198 9.17185 6.75823 9.56444 6.97868L25.3166 15.8235C25.5023 15.9277 25.6173 16.1242 25.6173 16.3371V20.9686C25.6173 21.4239 25.123 21.707 24.7303 21.4766L8.97809 12.2362Z" fill="#00A385"/>
<path d="M39.0172 10.2607C39.1974 10.3665 39.3081 10.5598 39.3081 10.7687V15.0047C39.3081 15.4549 38.8234 15.7387 38.4308 15.5182L22.6785 6.67338C22.4928 6.56914 22.378 6.37278 22.378 6.15984V1.52829C22.378 1.0731 22.8723 0.789975 23.265 1.02029L39.0172 10.2607Z" fill="#00A385" fill-opacity="0.75"/>
<path d="M38.456 10.2716C38.8476 10.0761 39.308 10.3608 39.308 10.7985V15.0882C39.308 15.2972 39.1973 15.4904 39.0171 15.5963L28.9927 21.4766C28.6002 21.707 28.1058 21.4239 28.1058 20.9686V15.8046C28.1058 15.5814 28.232 15.3773 28.4316 15.2777L38.456 10.2716Z" fill="#00A385"/>
</g>
<defs>
<clipPath id="clip0_8_151">
<rect width="48" height="48" fill="#00A385" transform="translate(0 0.5)"/>
</clipPath>
</defs>
</svg>
